  0
SECTION
  2
HEADER
  9
$ACADVER
  1
AC1009
  9
$DWGCODEPAGE
  3
ansi_1252
  9
$INSBASE
 10
0.0
 20
0.0
 30
0.0
  9
$EXTMIN
 10
-48.0
 20
-24.0
 30
0.0
  9
$EXTMAX
 10
48.0
 20
24.0
 30
0.0
  9
$LIMMIN
 10
0.0
 20
0.0
  9
$LIMMAX
 10
12.0
 20
9.0
  9
$ORTHOMODE
 70
     0
  9
$REGENMODE
 70
     1
  9
$FILLMODE
 70
     1
  9
$QTEXTMODE
 70
     0
  9
$MIRRTEXT
 70
     1
  9
$DRAGMODE
 70
     2
  9
$LTSCALE
 40
1.0
  9
$OSMODE
 70
    37
  9
$ATTMODE
 70
     1
  9
$TEXTSIZE
 40
0.2
  9
$TRACEWID
 40
0.05
  9
$TEXTSTYLE
  7
STANDARD
  9
$CLAYER
  8
0
  9
$CELTYPE
  6
BYLAYER
  9
$CECOLOR
 62
   256
  9
$DIMSCALE
 40
1.0
  9
$DIMASZ
 40
0.18
  9
$DIMEXO
 40
0.0625
  9
$DIMDLI
 40
0.38
  9
$DIMRND
 40
0.0
  9
$DIMDLE
 40
0.0
  9
$DIMEXE
 40
0.18
  9
$DIMTP
 40
0.0
  9
$DIMTM
 40
0.0
  9
$DIMTXT
 40
0.18
  9
$DIMCEN
 40
0.09
  9
$DIMTSZ
 40
0.0
  9
$DIMTOL
 70
     0
  9
$DIMLIM
 70
     0
  9
$DIMTIH
 70
     1
  9
$DIMTOH
 70
     1
  9
$DIMSE1
 70
     0
  9
$DIMSE2
 70
     0
  9
$DIMTAD
 70
     0
  9
$DIMZIN
 70
     0
  9
$DIMBLK
  1

  9
$DIMASO
 70
     1
  9
$DIMSHO
 70
     1
  9
$DIMPOST
  1

  9
$DIMAPOST
  1

  9
$DIMALT
 70
     0
  9
$DIMALTD
 70
     2
  9
$DIMALTF
 40
25.4
  9
$DIMLFAC
 40
1.0
  9
$DIMTOFL
 70
     0
  9
$DIMTVP
 40
0.0
  9
$DIMTIX
 70
     0
  9
$DIMSOXD
 70
     0
  9
$DIMSAH
 70
     0
  9
$DIMBLK1
  1

  9
$DIMBLK2
  1

  9
$DIMSTYLE
  2
STANDARD
  9
$DIMCLRD
 70
     0
  9
$DIMCLRE
 70
     0
  9
$DIMCLRT
 70
     0
  9
$DIMTFAC
 40
1.0
  9
$DIMGAP
 40
0.09
  9
$LUNITS
 70
     2
  9
$LUPREC
 70
     4
  9
$SKETCHINC
 40
0.1
  9
$FILLETRAD
 40
0.5
  9
$AUNITS
 70
     0
  9
$AUPREC
 70
     0
  9
$MENU
  1
.
  9
$ELEVATION
 40
0.0
  9
$PELEVATION
 40
0.0
  9
$THICKNESS
 40
0.0
  9
$LIMCHECK
 70
     0
  9
$CHAMFERA
 40
0.0
  9
$CHAMFERB
 40
0.0
  9
$SKPOLY
 70
     0
  9
$TDCREATE
 40
2454910.5
  9
$TDUPDATE
 40
2458362.328151192
  9
$TDINDWG
 40
0.0000000116
  9
$TDUSRTIMER
 40
0.0000000116
  9
$USRTIMER
 70
     1
  9
$ANGBASE
 50
0.0
  9
$ANGDIR
 70
     0
  9
$PDMODE
 70
     0
  9
$PDSIZE
 40
0.0
  9
$PLINEWID
 40
0.0
  9
$COORDS
 70
     1
  9
$SPLFRAME
 70
     0
  9
$SPLINETYPE
 70
     6
  9
$SPLINESEGS
 70
     8
  9
$ATTDIA
 70
     0
  9
$ATTREQ
 70
     1
  9
$HANDLING
 70
     1
  9
$HANDSEED
  5
16A
  9
$SURFTAB1
 70
     6
  9
$SURFTAB2
 70
     6
  9
$SURFTYPE
 70
     6
  9
$SURFU
 70
     6
  9
$SURFV
 70
     6
  9
$UCSNAME
  2

  9
$UCSORG
 10
0.0
 20
0.0
 30
0.0
  9
$UCSXDIR
 10
1.0
 20
0.0
 30
0.0
  9
$UCSYDIR
 10
0.0
 20
1.0
 30
0.0
  9
$PUCSNAME
  2

  9
$PUCSORG
 10
0.0
 20
0.0
 30
0.0
  9
$PUCSXDIR
 10
1.0
 20
0.0
 30
0.0
  9
$PUCSYDIR
 10
0.0
 20
1.0
 30
0.0
  9
$USERI1
 70
     0
  9
$USERI2
 70
     0
  9
$USERI3
 70
     0
  9
$USERI4
 70
     0
  9
$USERI5
 70
     0
  9
$USERR1
 40
0.0
  9
$USERR2
 40
0.0
  9
$USERR3
 40
0.0
  9
$USERR4
 40
0.0
  9
$USERR5
 40
0.0
  9
$WORLDVIEW
 70
     1
  9
$SHADEDGE
 70
     3
  9
$SHADEDIF
 70
    70
  9
$TILEMODE
 70
     1
  9
$MAXACTVP
 70
    64
  9
$PLIMCHECK
 70
     0
  9
$PEXTMIN
 10
1.000000000000000E+20
 20
1.000000000000000E+20
 30
1.000000000000000E+20
  9
$PEXTMAX
 10
-1.000000000000000E+20
 20
-1.000000000000000E+20
 30
-1.000000000000000E+20
  9
$PLIMMIN
 10
0.0
 20
0.0
  9
$PLIMMAX
 10
12.0
 20
9.0
  9
$UNITMODE
 70
     0
  9
$VISRETAIN
 70
     1
  9
$PLINEGEN
 70
     0
  9
$PSLTSCALE
 70
     1
  0
ENDSEC
  0
SECTION
  2
TABLES
  0
TABLE
  2
VPORT
 70
     1
  0
VPORT
  2
*ACTIVE
 70
     0
 10
0.0
 20
0.0
 11
1.0
 21
1.0
 12
10.42990654205607
 22
4.5
 13
0.0
 23
0.0
 14
0.5
 24
0.5
 15
0.5
 25
0.5
 16
0.0
 26
0.0
 36
1.0
 17
0.0
 27
0.0
 37
0.0
 40
9.0
 41
1.972972972850329
 42
50.0
 43
0.0
 44
0.0
 50
0.0
 51
0.0
 71
     0
 72
   100
 73
     1
 74
     3
 75
     0
 76
     0
 77
     0
 78
     0
  0
ENDTAB
  0
TABLE
  2
LTYPE
 70
     2
  0
LTYPE
  2
CONTINUOUS
 70
     0
  3
Solid line
 72
    65
 73
     0
 40
0.0
  0
LTYPE
  2
CONTINUOUS2
 70
     0
  3
Solid Line
 72
    65
 73
     0
 40
0.0
  0
ENDTAB
  0
TABLE
  2
LAYER
 70
     1
  0
LAYER
  2
0
 70
     0
 62
     7
  6
CONTINUOUS
  0
ENDTAB
  0
TABLE
  2
STYLE
 70
     1
  0
STYLE
  2
STANDARD
 70
     0
 40
0.0
 41
1.0
 50
0.0
 71
     0
 42
0.2
  3
txt
  4

  0
ENDTAB
  0
TABLE
  2
VIEW
 70
     0
  0
ENDTAB
  0
TABLE
  2
UCS
 70
     0
  0
ENDTAB
  0
TABLE
  2
APPID
 70
     1
  0
APPID
  2
ACAD
 70
     0
  0
ENDTAB
  0
TABLE
  2
DIMSTYLE
 70
     1
  0
DIMSTYLE
  2
STANDARD
 70
     0
  3

  4

  5

  6

  7

 40
1.0
 41
0.18
 42
0.0625
 43
0.38
 44
0.18
 45
0.0
 46
0.0
 47
0.0
 48
0.0
140
0.18
141
0.09
142
0.0
143
25.4
144
1.0
145
0.0
146
1.0
147
0.09
 71
     0
 72
     0
 73
     1
 74
     1
 75
     0
 76
     0
 77
     0
 78
     0
170
     0
171
     2
172
     0
173
     0
174
     0
175
     0
176
     0
177
     0
178
     0
  0
ENDTAB
  0
ENDSEC
  0
SECTION
  2
BLOCKS
  0
BLOCK
  8
0
  2
$MODEL_SPACE
 70
     0
 10
0.0
 20
0.0
 30
0.0
  3
$MODEL_SPACE
  1

  0
ENDBLK
  5
21
  8
0
  0
BLOCK
 67
     1
  8
0
  2
$PAPER_SPACE
 70
     0
 10
0.0
 20
0.0
 30
0.0
  3
$PAPER_SPACE
  1

  0
ENDBLK
  5
1D
 67
     1
  8
0
  0
ENDSEC
  0
SECTION
  2
ENTITIES
  0
POLYLINE
  5
6F
  8
0
 66
     1
 10
0.0
 20
0.0
 30
0.0
 70
     1
  0
VERTEX
  5
87
  8
0
 10
-25.271573379705
 20
18.249998455281
 30
0.0
  0
VERTEX
  5
88
  8
0
 10
-25.271573379705
 20
11.249998455281
 30
0.0
  0
VERTEX
  5
89
  8
0
 10
-24.771573379705
 20
11.249998455281
 30
0.0
  0
VERTEX
  5
8A
  8
0
 10
-24.771573379705
 20
9.249998455281002
 30
0.0
  0
VERTEX
  5
8B
  8
0
 10
-6.271573379705004
 20
9.249998455281002
 30
0.0
  0
VERTEX
  5
8C
  8
0
 10
-6.271573379705004
 20
11.249998455281
 30
0.0
  0
VERTEX
  5
8D
  8
0
 10
-5.771573379705004
 20
11.249998455281
 30
0.0
  0
VERTEX
  5
8E
  8
0
 10
-5.771573379705004
 20
18.249998455281
 30
0.0
  0
VERTEX
  5
8F
  8
0
 10
-6.271573379705004
 20
18.249998455281
 30
0.0
  0
VERTEX
  5
90
  8
0
 10
-6.271573379705004
 20
20.249998455281
 30
0.0
  0
VERTEX
  5
91
  8
0
 10
-24.771573379705
 20
20.249998455281
 30
0.0
  0
VERTEX
  5
92
  8
0
 10
-24.771573379705
 20
18.249998455281
 30
0.0
  0
SEQEND
  5
159
  8
0
  0
POLYLINE
  5
70
  8
0
 66
     1
 10
0.0
 20
0.0
 30
0.0
 70
     1
  0
VERTEX
  5
93
  8
0
 10
-24.271573379705
 20
3.749998455280998
 30
0.0
  0
VERTEX
  5
94
  8
0
 10
-8.771573379705004
 20
3.749998455280998
 30
0.0
  0
VERTEX
  5
95
  8
0
 10
-8.771573379705004
 20
4.249998455280998
 30
0.0
  0
VERTEX
  5
96
  8
0
 10
-24.271573379705
 20
4.249998455280998
 30
0.0
  0
SEQEND
  5
15A
  8
0
  0
POLYLINE
  5
71
  8
0
 66
     1
 10
0.0
 20
0.0
 30
0.0
 70
     1
  0
VERTEX
  5
97
  8
0
 10
-25.982982775678
 20
-3.035236444048
 30
0.0
  0
VERTEX
  5
98
  8
0
 10
-10.482982775678
 20
-3.035236444048
 30
0.0
  0
VERTEX
  5
99
  8
0
 10
-10.482982775678
 20
-2.535236444048
 30
0.0
  0
VERTEX
  5
9A
  8
0
 10
-25.982982775678
 20
-2.535236444048
 30
0.0
  0
SEQEND
  5
15B
  8
0
  0
POLYLINE
  5
72
  8
0
 66
     1
 10
0.0
 20
0.0
 30
0.0
 70
     1
  0
VERTEX
  5
9B
  8
0
 10
-26.271573379705
 20
2.499998455280998
 30
0.0
  0
VERTEX
  5
9C
  8
0
 10
-26.271573379705
 20
5.499998455280998
 30
0.0
  0
VERTEX
  5
9D
  8
0
 10
-25.771573379705
 20
5.499998455280998
 30
0.0
  0
VERTEX
  5
9E
  8
0
 10
-25.771573379705
 20
2.499998455280998
 30
0.0
  0
VERTEX
  5
9F
  8
0
 10
-7.271573379705004
 20
2.499998455280998
 30
0.0
  0
VERTEX
  5
A0
  8
0
 10
-7.271573379705004
 20
5.499998455280998
 30
0.0
  0
VERTEX
  5
A1
  8
0
 10
-6.771573379705004
 20
5.499998455280998
 30
0.0
  0
VERTEX
  5
A2
  8
0
 10
-6.771573379705004
 20
2.499998455280998
 30
0.0
  0
VERTEX
  5
A3
  8
0
 10
-5.271573379705004
 20
2.499998455280998
 30
0.0
 42
0.4142135623730994
  0
VERTEX
  5
A4
  8
0
 10
-4.771573379705004
 20
2.999998455280998
 30
0.0
  0
VERTEX
  5
A5
  8
0
 10
-4.771573379705004
 20
7.999998455281002
 30
0.0
 42
0.4142135623731065
  0
VERTEX
  5
A6
  8
0
 10
-5.271573379705004
 20
8.49999845528
 30
0.0
  0
VERTEX
  5
A7
  8
0
 10
-8.771573379705004
 20
8.499998455281002
 30
0.0
  0
VERTEX
  5
A8
  8
0
 10
-8.771573379705004
 20
7.999998455281002
 30
0.0
  0
VERTEX
  5
A9
  8
0
 10
-24.271573379705
 20
7.999998455281002
 30
0.0
  0
VERTEX
  5
AA
  8
0
 10
-24.271573379705
 20
8.499998455281002
 30
0.0
  0
VERTEX
  5
AB
  8
0
 10
-27.771573379705
 20
8.499998455281002
 30
0.0
 42
0.4142135623730994
  0
VERTEX
  5
AC
  8
0
 10
-28.271573379705
 20
7.99999845528
 30
0.0
  0
VERTEX
  5
AD
  8
0
 10
-28.271573379705
 20
2.999998455280998
 30
0.0
 42
0.4142135623730985
  0
VERTEX
  5
AE
  8
0
 10
-27.771573379705
 20
2.499998455280998
 30
0.0
  0
SEQEND
  5
15C
  8
0
  0
POLYLINE
  5
73
  8
0
 66
     1
 10
0.0
 20
0.0
 30
0.0
 70
     1
  0
VERTEX
  5
AF
  8
0
 10
-27.982982775678
 20
-4.285236444048
 30
0.0
  0
VERTEX
  5
B0
  8
0
 10
-27.982982775678
 20
-1.285236444048
 30
0.0
  0
VERTEX
  5
B1
  8
0
 10
-27.482982775678
 20
-1.285236444048
 30
0.0
  0
VERTEX
  5
B2
  8
0
 10
-27.482982775678
 20
-4.285236444048
 30
0.0
  0
VERTEX
  5
B3
  8
0
 10
-8.982982775678003
 20
-4.285236444048
 30
0.0
  0
VERTEX
  5
B4
  8
0
 10
-8.982982775678003
 20
-1.285236444048
 30
0.0
  0
VERTEX
  5
B5
  8
0
 10
-8.482982775678003
 20
-1.285236444048
 30
0.0
  0
VERTEX
  5
B6
  8
0
 10
-8.482982775678003
 20
-4.285236444048
 30
0.0
  0
VERTEX
  5
B7
  8
0
 10
-6.982982775678003
 20
-4.285236444048
 30
0.0
 42
0.4142135623730994
  0
VERTEX
  5
B8
  8
0
 10
-6.482982775678003
 20
-3.785236444048
 30
0.0
  0
VERTEX
  5
B9
  8
0
 10
-6.482982775678003
 20
1.214763555952
 30
0.0
 42
0.4142135623730994
  0
VERTEX
  5
BA
  8
0
 10
-6.982982775678003
 20
1.714763555952
 30
0.0
  0
VERTEX
  5
BB
  8
0
 10
-10.482982775678
 20
1.714763555952
 30
0.0
  0
VERTEX
  5
BC
  8
0
 10
-10.482982775678
 20
1.214763555952
 30
0.0
  0
VERTEX
  5
BD
  8
0
 10
-25.982982775678
 20
1.214763555952
 30
0.0
  0
VERTEX
  5
BE
  8
0
 10
-25.982982775678
 20
1.714763555952
 30
0.0
  0
VERTEX
  5
BF
  8
0
 10
-29.482982775678
 20
1.714763555952
 30
0.0
 42
0.4142135623730923
  0
VERTEX
  5
C0
  8
0
 10
-29.982982775678
 20
1.214763555952
 30
0.0
  0
VERTEX
  5
C1
  8
0
 10
-29.982982775678
 20
-3.785236444048
 30
0.0
 42
0.4142135623730923
  0
VERTEX
  5
C2
  8
0
 10
-29.482982775678
 20
-4.285236444048
 30
0.0
  0
SEQEND
  5
15D
  8
0
  0
POLYLINE
  5
74
  8
0
 66
     1
 10
0.0
 20
0.0
 30
0.0
 70
     1
  0
VERTEX
  5
C3
  8
0
 10
-48.0
 20
24.0
 30
0.0
  0
VERTEX
  5
C4
  8
0
 10
-48.0
 20
-24.0
 30
0.0
  0
VERTEX
  5
C5
  8
0
 10
48.0
 20
-24.0
 30
0.0
  0
VERTEX
  5
C6
  8
0
 10
48.0
 20
24.0
 30
0.0
  0
SEQEND
  5
15E
  8
0
  0
POLYLINE
  5
75
  8
0
 66
     1
 10
0.0
 20
0.0
 30
0.0
 70
     1
  0
VERTEX
  5
C7
  8
0
 10
5.478426620294996
 20
3.749998455280998
 30
0.0
  0
VERTEX
  5
C8
  8
0
 10
5.478426620294996
 20
3.249998455280998
 30
0.0
  0
VERTEX
  5
C9
  8
0
 10
20.978426620295
 20
3.249998455280998
 30
0.0
  0
VERTEX
  5
CA
  8
0
 10
20.978426620295
 20
3.749998455280998
 30
0.0
  0
VERTEX
  5
CB
  8
0
 10
22.478426620295
 20
3.749998455280998
 30
0.0
  0
VERTEX
  5
CC
  8
0
 10
22.478426620295
 20
20.499998455281
 30
0.0
  0
VERTEX
  5
CD
  8
0
 10
20.978426620295
 20
20.499998455281
 30
0.0
  0
VERTEX
  5
CE
  8
0
 10
20.978426620295
 20
20.99999845528
 30
0.0
  0
VERTEX
  5
CF
  8
0
 10
5.478426620294996
 20
20.999998455281
 30
0.0
  0
VERTEX
  5
D0
  8
0
 10
5.478426620294996
 20
20.49999845528
 30
0.0
  0
VERTEX
  5
D1
  8
0
 10
3.978426620294996
 20
20.49999845528
 30
0.0
  0
VERTEX
  5
D2
  8
0
 10
3.978426620294996
 20
3.74999845528
 30
0.0
  0
SEQEND
  5
15F
  8
0
  0
POLYLINE
  5
76
  8
0
 66
     1
 10
0.0
 20
0.0
 30
0.0
 70
     1
  0
VERTEX
  5
D3
  8
0
 10
-36.668261038881
 20
-3.447156695827001
 30
0.0
  0
VERTEX
  5
D4
  8
0
 10
-38.759459677869
 20
-10.462580104091
 30
0.0
  0
VERTEX
  5
D5
  8
0
 10
-38.257008195913
 20
-10.550001544718
 30
0.0
  0
VERTEX
  5
D6
  8
0
 10
-36.165809556926
 20
-3.534578136454002
 30
0.0
  0
SEQEND
  5
160
  8
0
  0
POLYLINE
  5
77
  8
0
 66
     1
 10
0.0
 20
0.0
 30
0.0
 70
     1
  0
VERTEX
  5
D7
  8
0
 10
36.479519017237
 20
-3.447156695827001
 30
0.0
  0
VERTEX
  5
D8
  8
0
 10
38.570717656225
 20
-10.462580104091
 30
0.0
  0
VERTEX
  5
D9
  8
0
 10
38.068266174269
 20
-10.550001544718
 30
0.0
  0
VERTEX
  5
DA
  8
0
 10
35.977067535282
 20
-3.534578136454002
 30
0.0
  0
SEQEND
  5
161
  8
0
  0
POLYLINE
  5
78
  8
0
 66
     1
 10
0.0
 20
0.0
 30
0.0
 70
     1
  0
VERTEX
  5
DB
  8
0
 10
4.251706635806997
 20
-5.744967987608
 30
0.0
  0
VERTEX
  5
DC
  8
0
 10
4.251706635806997
 20
-12.244967987608
 30
0.0
  0
VERTEX
  5
DD
  8
0
 10
4.751706635806997
 20
-12.244967987608
 30
0.0
  0
VERTEX
  5
DE
  8
0
 10
4.751706635806997
 20
-5.744967987608
 30
0.0
  0
SEQEND
  5
162
  8
0
  0
POLYLINE
  5
79
  8
0
 66
     1
 10
0.0
 20
0.0
 30
0.0
 70
     1
  0
VERTEX
  5
DF
  8
0
 10
23.260305977313
 20
-5.744967987608
 30
0.0
  0
VERTEX
  5
E0
  8
0
 10
23.260305977313
 20
-12.244967987608
 30
0.0
  0
VERTEX
  5
E1
  8
0
 10
23.760305977313
 20
-12.244967987608
 30
0.0
  0
VERTEX
  5
E2
  8
0
 10
23.760305977313
 20
-5.744967987608
 30
0.0
  0
SEQEND
  5
163
  8
0
  0
POLYLINE
  5
7A
  8
0
 66
     1
 10
0.0
 20
0.0
 30
0.0
 70
     1
  0
VERTEX
  5
E3
  8
0
 10
-20.498293364193
 20
-19.4949679876075
 30
0.0
  0
VERTEX
  5
E4
  8
0
 10
-19.998293364193
 20
-19.494967987608
 30
0.0
  0
VERTEX
  5
E5
  8
0
 10
-19.998293364193
 20
-12.994967987608
 30
0.0
  0
VERTEX
  5
E6
  8
0
 10
-20.498293364193
 20
-12.994967987608
 30
0.0
  0
SEQEND
  5
164
  8
0
  0
POLYLINE
  5
7B
  8
0
 66
     1
 10
0.0
 20
0.0
 30
0.0
 70
     1
  0
VERTEX
  5
E7
  8
0
 10
-1.489694022686997
 20
-19.494967987608
 30
0.0
  0
VERTEX
  5
E8
  8
0
 10
-0.9896940226869972
 20
-19.494967987608
 30
0.0
  0
VERTEX
  5
E9
  8
0
 10
-0.9896940226869972
 20
-12.994967987608
 30
0.0
  0
VERTEX
  5
EA
  8
0
 10
-1.489694022686997
 20
-12.994967987608
 30
0.0
  0
SEQEND
  5
165
  8
0
  0
POLYLINE
  5
7C
  8
0
 66
     1
 10
0.0
 20
0.0
 30
0.0
 70
     1
  0
VERTEX
  5
EB
  8
0
 10
35.794830512205
 20
-14.693600433048
 30
0.0
  0
VERTEX
  5
EC
  8
0
 10
26.05835292301499
 20
-14.693600433048
 30
0.0
  0
VERTEX
  5
ED
  8
0
 10
26.05835292301499
 20
-17.693600433048
 30
0.0
  0
VERTEX
  5
EE
  8
0
 10
25.55835292301499
 20
-17.693600433048
 30
0.0
  0
VERTEX
  5
EF
  8
0
 10
25.55835292301499
 20
-14.693600433048
 30
0.0
  0
VERTEX
  5
F0
  8
0
 10
24.80835292301499
 20
-14.693600433048
 30
0.0
 42
0.4142135623730994
  0
VERTEX
  5
F1
  8
0
 10
24.30835292301499
 20
-15.193600433048
 30
0.0
  0
VERTEX
  5
F2
  8
0
 10
24.30835292301499
 20
-20.693600433048
 30
0.0
  0
VERTEX
  5
F3
  8
0
 10
44.55835292301499
 20
-20.693600433048
 30
0.0
  0
VERTEX
  5
F4
  8
0
 10
44.55835292301499
 20
-15.193600433048
 30
0.0
 42
0.4142135623730856
  0
VERTEX
  5
F5
  8
0
 10
44.05835292301501
 20
-14.693600433048
 30
0.0
  0
VERTEX
  5
F6
  8
0
 10
43.30835292301499
 20
-14.693600433048
 30
0.0
  0
VERTEX
  5
F7
  8
0
 10
43.30835292301499
 20
-17.693600433048
 30
0.0
  0
VERTEX
  5
F8
  8
0
 10
42.80835292301499
 20
-17.693600433048
 30
0.0
  0
VERTEX
  5
F9
  8
0
 10
42.80835292301499
 20
-14.693600433048
 30
0.0
  0
VERTEX
  5
FA
  8
0
 10
37.503563286477
 20
3.806399566951999
 30
0.0
  0
VERTEX
  5
FB
  8
0
 10
34.351243137221
 20
3.806399566951999
 30
0.0
  0
VERTEX
  5
FC
  8
0
 10
34.351243137221
 20
4.306399566951999
 30
0.0
  0
VERTEX
  5
FD
  8
0
 10
37.36019059359801
 20
4.306399566951999
 30
0.0
  0
VERTEX
  5
FE
  8
0
 10
36.069836357683
 20
8.806399566952003
 30
0.0
  0
VERTEX
  5
FF
  8
0
 10
32.88934719434199
 20
8.806399566952003
 30
0.0
  0
VERTEX
  5
100
  8
0
 10
32.88934719434199
 20
9.306399566952003
 30
0.0
  0
VERTEX
  5
101
  8
0
 10
35.926463664804
 20
9.306399566952003
 30
0.0
  0
VERTEX
  5
102
  8
0
 10
34.636109428889
 20
13.806399566952
 30
0.0
  0
VERTEX
  5
103
  8
0
 10
31.427451251463
 20
13.806399566952
 30
0.0
  0
VERTEX
  5
104
  8
0
 10
31.427451251463
 20
14.306399566952
 30
0.0
  0
VERTEX
  5
105
  8
0
 10
34.49273673601
 20
14.306399566952
 30
0.0
  0
VERTEX
  5
106
  8
0
 10
33.202382500095
 20
18.806399566952
 30
0.0
  0
VERTEX
  5
107
  8
0
 10
29.965555308585
 20
18.806399566952
 30
0.0
  0
VERTEX
  5
108
  8
0
 10
29.965555308585
 20
19.306399566952
 30
0.0
  0
VERTEX
  5
109
  8
0
 10
33.059009807216
 20
19.306399566952
 30
0.0
  0
VERTEX
  5
10A
  8
0
 10
32.732745551495
 20
20.44421824486
 30
0.0
 42
0.3345953195020898
  0
VERTEX
  5
10B
  8
0
 10
32.252114703526
 20
20.806399566952
 30
0.0
  0
VERTEX
  5
10C
  8
0
 10
26.94241413938801
 20
20.806399566952
 30
0.0
 42
0.4985816080534229
  0
VERTEX
  5
10D
  8
0
 10
26.46178329141789
 20
20.16858088904223
 30
0.0
  0
VERTEX
  5
10E
  8
0
 10
36.27546136017408
 20
-14.05578175514025
 30
0.0
 42
-0.49858160805344
  0
SEQEND
  5
166
  8
0
  0
POLYLINE
  5
7D
  8
0
 66
     1
 10
0.0
 20
0.0
 30
0.0
 70
     1
  0
VERTEX
  5
10F
  8
0
 10
10.47770255569
 20
-12.755036143081
 30
0.0
  0
VERTEX
  5
110
  8
0
 10
13.478426620295
 20
-12.755035612073
 30
0.0
 42
-0.4142138670045897
  0
VERTEX
  5
111
  8
0
 10
13.97339255294087
 20
-13.25000205952154
 30
0.0
 42
-0.414213867004587
  0
VERTEX
  5
112
  8
0
 10
13.47842559069
 20
-13.744967477364
 30
0.0
  0
VERTEX
  5
113
  8
0
 10
3.249495056319496
 20
-13.74494615629883
 30
0.0
 42
-0.4142129518699699
  0
VERTEX
  5
114
  8
0
 10
2.249497140708002
 20
-12.744946156301
 30
0.0
  0
VERTEX
  5
115
  8
0
 10
2.249497140708002
 20
1.255028807380999
 30
0.0
 42
-0.4142135623730923
  0
VERTEX
  5
116
  8
0
 10
3.249497019034997
 20
2.255028807380999
 30
0.0
  0
VERTEX
  5
117
  8
0
 10
24.749493792409
 20
2.255031423344999
 30
0.0
 42
-0.4142135623730994
  0
VERTEX
  5
118
  8
0
 10
25.749493792409
 20
1.255031621981001
 30
0.0
  0
VERTEX
  5
119
  8
0
 10
25.749496573309
 20
-12.744966102202
 30
0.0
 42
-0.4142135854135164
  0
VERTEX
  5
11A
  8
0
 10
24.74949649464401
 20
-13.744966102202
 30
0.0
  0
VERTEX
  5
11B
  8
0
 10
15.228426620295
 20
-13.744967477365
 30
0.0
 42
-0.9992678700689923
  0
VERTEX
  5
11C
  8
0
 10
15.227701596432
 20
-12.75503614308
 30
0.0
  0
VERTEX
  5
11D
  8
0
 10
18.2284266554695
 20
-12.7550356120735
 30
0.0
 42
1.0
  0
VERTEX
  5
11E
  8
0
 10
18.22842660667749
 20
-11.959954611416
 30
0.0
  0
VERTEX
  5
11F
  8
0
 10
10.47770255569
 20
-11.959955142423
 30
0.0
 42
1.0
  0
SEQEND
  5
167
  8
0
  0
POLYLINE
  5
7E
  8
0
 66
     1
 10
0.0
 20
0.0
 30
0.0
 70
     1
  0
VERTEX
  5
120
  8
0
 10
-14.27229744431
 20
-20.005036143081
 30
0.0
  0
VERTEX
  5
121
  8
0
 10
-11.271573379705
 20
-20.005035612074
 30
0.0
 42
-0.4142138670045897
  0
VERTEX
  5
122
  8
0
 10
-10.77660744705913
 20
-20.50000205952254
 30
0.0
 42
-0.4142138670045887
  0
VERTEX
  5
123
  8
0
 10
-11.27157440931
 20
-20.994967477365
 30
0.0
  0
VERTEX
  5
124
  8
0
 10
-21.5005049436805
 20
-20.99494615629983
 30
0.0
 42
-0.4142129518699699
  0
VERTEX
  5
125
  8
0
 10
-22.500502859292
 20
-19.994946156301
 30
0.0
  0
VERTEX
  5
126
  8
0
 10
-22.500502859292
 20
-5.994971192619001
 30
0.0
 42
-0.4142135623730923
  0
VERTEX
  5
127
  8
0
 10
-21.500502980965
 20
-4.994971192619001
 30
0.0
  0
VERTEX
  5
128
  8
0
 10
-0.0005062075910018
 20
-4.994968576655001
 30
0.0
 42
-0.4142135623730923
  0
VERTEX
  5
129
  8
0
 10
0.9994937924089982
 20
-5.994968378018999
 30
0.0
  0
VERTEX
  5
12A
  8
0
 10
0.9994965733090027
 20
-19.994966102202
 30
0.0
 42
-0.4142135854135128
  0
VERTEX
  5
12B
  8
0
 10
-0.0005035053560007
 20
-20.994966102202
 30
0.0
  0
VERTEX
  5
12C
  8
0
 10
-9.521573379705004
 20
-20.994967477366
 30
0.0
 42
-0.9992678700690139
  0
VERTEX
  5
12D
  8
0
 10
-9.522298403567742
 20
-20.00503614308006
 30
0.0
  0
VERTEX
  5
12E
  8
0
 10
-6.521573344530502
 20
-20.0050356120735
 30
0.0
 42
0.4142135623731022
  0
VERTEX
  5
12F
  8
0
 10
-6.124032879376003
 20
-19.607495111745
 30
0.0
 42
0.4142135623731021
  0
VERTEX
  5
130
  8
0
 10
-6.521573393322502
 20
-19.209954611416
 30
0.0
  0
VERTEX
  5
131
  8
0
 10
-14.27229744431
 20
-19.209955142423
 30
0.0
 42
0.4142135623731022
  0
VERTEX
  5
132
  8
0
 10
-14.669837944639
 20
-19.607495642752
 30
0.0
 42
0.4142135623731021
  0
SEQEND
  5
168
  8
0
  0
POLYLINE
  5
7F
  8
0
 66
     1
 10
0.0
 20
0.0
 30
0.0
 70
     1
  0
VERTEX
  5
133
  8
0
 10
-35.983572533849
 20
-14.693600433048
 30
0.0
  0
VERTEX
  5
134
  8
0
 10
-26.247094944659
 20
-14.693600433048
 30
0.0
  0
VERTEX
  5
135
  8
0
 10
-26.247094944659
 20
-17.693600433048
 30
0.0
  0
VERTEX
  5
136
  8
0
 10
-25.747094944659
 20
-17.693600433048
 30
0.0
  0
VERTEX
  5
137
  8
0
 10
-25.747094944659
 20
-14.693600433048
 30
0.0
  0
VERTEX
  5
138
  8
0
 10
-24.99709494465899
 20
-14.693600433048
 30
0.0
 42
-0.4142135623730948
  0
VERTEX
  5
139
  8
0
 10
-24.497094944659
 20
-15.193600433048
 30
0.0
  0
VERTEX
  5
13A
  8
0
 10
-24.497094944659
 20
-20.693600433048
 30
0.0
  0
VERTEX
  5
13B
  8
0
 10
-44.747094944659
 20
-20.693600433048
 30
0.0
  0
VERTEX
  5
13C
  8
0
 10
-44.747094944659
 20
-15.193600433048
 30
0.0
 42
-0.414213562373094
  0
VERTEX
  5
13D
  8
0
 10
-44.247094944659
 20
-14.693600433048
 30
0.0
  0
VERTEX
  5
13E
  8
0
 10
-43.497094944659
 20
-14.693600433048
 30
0.0
  0
VERTEX
  5
13F
  8
0
 10
-43.497094944659
 20
-17.693600433048
 30
0.0
  0
VERTEX
  5
140
  8
0
 10
-42.997094944659
 20
-17.693600433048
 30
0.0
  0
VERTEX
  5
141
  8
0
 10
-42.997094944659
 20
-14.693600433048
 30
0.0
  0
VERTEX
  5
142
  8
0
 10
-37.692305308121
 20
3.806399566951999
 30
0.0
  0
VERTEX
  5
143
  8
0
 10
-34.539985158865
 20
3.806399566951999
 30
0.0
  0
VERTEX
  5
144
  8
0
 10
-34.539985158865
 20
4.306399566951999
 30
0.0
  0
VERTEX
  5
145
  8
0
 10
-37.548932615242
 20
4.306399566951999
 30
0.0
  0
VERTEX
  5
146
  8
0
 10
-36.258578379327
 20
8.806399566952003
 30
0.0
  0
VERTEX
  5
147
  8
0
 10
-33.078089215986
 20
8.806399566952003
 30
0.0
  0
VERTEX
  5
148
  8
0
 10
-33.078089215986
 20
9.306399566952003
 30
0.0
  0
VERTEX
  5
149
  8
0
 10
-36.115205686448
 20
9.306399566952003
 30
0.0
  0
VERTEX
  5
14A
  8
0
 10
-34.824851450533
 20
13.806399566952
 30
0.0
  0
VERTEX
  5
14B
  8
0
 10
-31.616193273107
 20
13.806399566952
 30
0.0
  0
VERTEX
  5
14C
  8
0
 10
-31.616193273107
 20
14.306399566952
 30
0.0
  0
VERTEX
  5
14D
  8
0
 10
-34.681478757654
 20
14.306399566952
 30
0.0
  0
VERTEX
  5
14E
  8
0
 10
-33.391124521739
 20
18.806399566952
 30
0.0
  0
VERTEX
  5
14F
  8
0
 10
-30.154297330229
 20
18.806399566952
 30
0.0
  0
VERTEX
  5
150
  8
0
 10
-30.154297330229
 20
19.306399566952
 30
0.0
  0
VERTEX
  5
151
  8
0
 10
-33.24775182886
 20
19.306399566952
 30
0.0
  0
VERTEX
  5
152
  8
0
 10
-32.92148757313916
 20
20.4442182448605
 30
0.0
 42
-0.3345953195020725
  0
VERTEX
  5
153
  8
0
 10
-32.44085672517
 20
20.806399566952
 30
0.0
  0
VERTEX
  5
154
  8
0
 10
-27.13115616103196
 20
20.806399566952
 30
0.0
 42
-0.4985816080534388
  0
VERTEX
  5
155
  8
0
 10
-26.650525313062
 20
20.168580889043
 30
0.0
  0
VERTEX
  5
156
  8
0
 10
-36.46420338181808
 20
-14.05578175514025
 30
0.0
 42
0.4985816080534338
  0
SEQEND
  5
169
  8
0
  0
ENDSEC
  0
EOF
